<?xml version="1.0" encoding="UTF-8" standalone="no"?>
<!-- Created with Inkscape (http://www.inkscape.org/) -->

<svg
   xmlns:dc="http://purl.org/dc/elements/1.1/"
   xmlns:cc="http://creativecommons.org/ns#"
   xmlns:rdf="http://www.w3.org/1999/02/22-rdf-syntax-ns#"
   xmlns:svg="http://www.w3.org/2000/svg"
   xmlns="http://www.w3.org/2000/svg"
   xmlns:sodipodi="http://sodipodi.sourceforge.net/DTD/sodipodi-0.dtd"
   xmlns:inkscape="http://www.inkscape.org/namespaces/inkscape"
   width="210mm"
   height="297mm"
   viewBox="0 0 744.09448819 1052.3622047"
   id="svg2"
   version="1.1"
   inkscape:version="0.91 r13725"
   sodipodi:docname="logo.svg">
  <defs
     id="defs4" />
  <sodipodi:namedview
     id="base"
     pagecolor="#ffffff"
     bordercolor="#666666"
     borderopacity="1.0"
     inkscape:pageopacity="0.0"
     inkscape:pageshadow="2"
     inkscape:zoom="2"
     inkscape:cx="320.16714"
     inkscape:cy="518.00083"
     inkscape:document-units="px"
     inkscape:current-layer="layer1"
     showgrid="false"
     inkscape:window-width="1877"
     inkscape:window-height="1056"
     inkscape:window-x="43"
     inkscape:window-y="24"
     inkscape:window-maximized="1"
     inkscape:object-nodes="true" />
  <metadata
     id="metadata7">
    <rdf:RDF>
      <cc:Work
         rdf:about="">
        <dc:format>image/svg+xml</dc:format>
        <dc:type
           rdf:resource="http://purl.org/dc/dcmitype/StillImage" />
        <dc:title />
      </cc:Work>
    </rdf:RDF>
  </metadata>
  <g
     inkscape:label="Layer 1"
     inkscape:groupmode="layer"
     id="layer1">
    <path
       style="fill:#a0a0a0;stroke:none;stroke-width:1px;stroke-linecap:butt;stroke-linejoin:miter;stroke-opacity:1"
       d="m 288.22823,493.9471 c -0.14004,-0.35537 -8.84668,-20.97345 -19.3481,-45.81797 -10.50142,-24.84451 -19.00071,-45.26462 -18.8873,-45.37802 0.1134,-0.11341 17.97769,-0.14858 39.6984,-0.0782 l 39.49222,0.12803 -19.86946,45.73585 c -10.92819,25.15472 -20.08583,45.80798 -20.3503,45.89613 -0.26447,0.0882 -0.59543,-0.13047 -0.73546,-0.48585 z"
       id="path4231"
       inkscape:connector-curvature="0" />
    <path
       style="color:#000000;clip-rule:nonzero;display:inline;overflow:visible;visibility:visible;opacity:1;isolation:auto;mix-blend-mode:normal;color-interpolation:sRGB;color-interpolation-filters:linearRGB;solid-color:#000000;solid-opacity:1;fill:#161b43;fill-opacity:1;fill-rule:nonzero;stroke:none;stroke-width:1px;stroke-linecap:butt;stroke-linejoin:miter;stroke-miterlimit:4;stroke-dasharray:none;stroke-dashoffset:0;stroke-opacity:1;color-rendering:auto;image-rendering:auto;shape-rendering:auto;text-rendering:auto;enable-background:accumulate"
       d="m 315.75546,556.90767 -21.85417,-50.64145 22.35417,-51.84191 22.35417,-51.8419 44.84948,-0.0157 44.84949,-0.0157 -0.69227,1.625 c -7.02545,16.49116 -89.31582,203.14444 -89.60275,203.23942 -0.22217,0.0735 -10.23833,-22.65493 -22.25812,-50.50772 z"
       id="path4233"
       inkscape:connector-curvature="0" />
    <path
       style="color:#000000;clip-rule:nonzero;display:inline;overflow:visible;visibility:visible;opacity:1;isolation:auto;mix-blend-mode:normal;color-interpolation:sRGB;color-interpolation-filters:linearRGB;solid-color:#000000;solid-opacity:1;fill:#1e1e20;fill-opacity:1;fill-rule:nonzero;stroke:none;stroke-width:1px;stroke-linecap:butt;stroke-linejoin:miter;stroke-miterlimit:4;stroke-dasharray:none;stroke-dashoffset:0;stroke-opacity:1;color-rendering:auto;image-rendering:auto;shape-rendering:auto;text-rendering:auto;enable-background:accumulate"
       d="m 238.12599,604.92597 c -0.37543,-0.89375 -20.16395,-46.68345 -43.97448,-101.7549 -23.81054,-55.07144 -43.29188,-100.24019 -43.29188,-100.375 0,-0.1348 19.55057,-0.2451 43.4457,-0.2451 l 43.4457,0 22.28679,52.00024 22.28679,52.00024 -21.35749,49.99277 c -11.74662,27.49603 -21.53772,49.99592 -21.75801,49.99976 -0.22028,0.004 -0.70768,-0.72426 -1.08312,-1.61801 z"
       id="path4235"
       inkscape:connector-curvature="0" />
    <path
       style="color:#000000;clip-rule:nonzero;display:inline;overflow:visible;visibility:visible;opacity:1;isolation:auto;mix-blend-mode:normal;color-interpolation:sRGB;color-interpolation-filters:linearRGB;solid-color:#000000;solid-opacity:1;fill:#3647a4;fill-opacity:1;fill-rule:nonzero;stroke:none;stroke-width:1px;stroke-linecap:butt;stroke-linejoin:miter;stroke-miterlimit:4;stroke-dasharray:none;stroke-dashoffset:0;stroke-opacity:1;color-rendering:auto;image-rendering:auto;shape-rendering:auto;text-rendering:auto;enable-background:accumulate"
       d="m 331.16107,591.42892 c -6.7638,-15.38517 -34.88353,-80.32052 -36.13989,-83.45588 l -0.73247,-1.82794 22.06666,-51.17206 c 12.13666,-28.14464 22.22137,-51.32086 22.41046,-51.50271 0.18909,-0.18185 20.34856,-0.49422 44.79883,-0.69415 37.83017,-0.30934 44.41382,-0.26007 44.17849,0.33064 -1.0711,2.68863 -41.97742,95.70445 -65.28249,148.44415 -22.56028,51.05424 -23.9792,54.20939 -24.44931,54.3661 -0.23066,0.0769 -3.31328,-6.44279 -6.85028,-14.48815 z"
       id="path4237"
       inkscape:connector-curvature="0" />
    <text
       xml:space="preserve"
       style="font-style:normal;font-weight:normal;font-size:34.9055748px;line-height:125%;font-family:sans-serif;letter-spacing:0px;word-spacing:0px;fill:#000000;fill-opacity:1;stroke:none;stroke-width:1px;stroke-linecap:butt;stroke-linejoin:miter;stroke-opacity:1"
       x="431.10669"
       y="606.80566"
       id="text4239"
       sodipodi:linespacing="125%"
       transform="scale(0.99917697,1.0008237)"><tspan
         sodipodi:role="line"
         id="tspan4241"
         x="431.10669"
         y="606.80566"
         style="font-style:normal;font-variant:normal;font-weight:normal;font-stretch:normal;font-size:272.69979858px;font-family:'Poiret One';-inkscape-font-specification:'Poiret One'">D</tspan></text>
    <path
       style="color:#000000;clip-rule:nonzero;display:inline;overflow:visible;visibility:visible;opacity:1;isolation:auto;mix-blend-mode:normal;color-interpolation:sRGB;color-interpolation-filters:linearRGB;solid-color:#000000;solid-opacity:1;fill:#3647a4;fill-opacity:1;fill-rule:nonzero;stroke:none;stroke-width:1px;stroke-linecap:butt;stroke-linejoin:miter;stroke-miterlimit:4;stroke-dasharray:none;stroke-dashoffset:0;stroke-opacity:1;color-rendering:auto;image-rendering:auto;shape-rendering:auto;text-rendering:auto;enable-background:accumulate"
       d="m 451.39635,504.83277 0,-102.29005 5.1347,0.182 c 8.08178,0.28647 13.72497,0.94554 20.53427,2.39822 16.78412,3.58068 31.59854,11.42785 44.06274,23.33997 15.09792,14.42916 25.03519,31.12929 29.752,49.99993 1.14348,4.57469 1.8969,8.71187 2.55377,14.02325 0.69791,5.64336 0.69292,20.2946 -0.009,25.86814 -1.35861,10.7904 -3.76468,19.80932 -7.7365,28.99955 -7.9707,18.44298 -23.0669,35.88352 -39.98385,46.19309 -14.24822,8.68318 -32.23676,13.57593 -49.91282,13.57593 l -4.39548,0 0,-102.29003 z"
       id="path4243"
       inkscape:connector-curvature="0" />
    <path
       style="color:#000000;clip-rule:nonzero;display:inline;overflow:visible;visibility:visible;opacity:1;isolation:auto;mix-blend-mode:normal;color-interpolation:sRGB;color-interpolation-filters:linearRGB;solid-color:#000000;solid-opacity:1;fill:#3647a4;fill-opacity:1;fill-rule:nonzero;stroke:none;stroke-width:1px;stroke-linecap:butt;stroke-linejoin:miter;stroke-miterlimit:4;stroke-dasharray:none;stroke-dashoffset:0;stroke-opacity:1;color-rendering:auto;image-rendering:auto;shape-rendering:auto;text-rendering:auto;enable-background:accumulate"
       d="m 451.39635,504.83279 0,-102.29007 8.0189,0.17072 c 7.90193,0.16824 13.28097,0.54696 18.29937,1.2884 17.44599,2.57753 32.58819,9.03092 45.67394,19.46559 3.85953,3.07761 11.54498,10.74093 14.85811,14.8153 15.77295,19.39709 23.39008,41.19875 23.39647,66.96513 0.006,24.87571 -7.44835,46.68394 -22.32771,65.3198 -9.47917,11.87231 -19.74012,20.27349 -32.29408,26.44086 -11.54661,5.67249 -23.63732,8.80872 -38,9.85688 -1.925,0.14048 -6.67812,0.25588 -10.5625,0.25644 l -7.0625,0.001 0,-102.29007 z m 23,93.43923 c 23.86547,-2.94855 42.4218,-13.41799 57.86833,-32.64916 11.29023,-14.05652 17.85087,-29.88822 20.04656,-48.375 0.63586,-5.35366 0.63713,-18.98912 0.002,-24.125 -2.79016,-22.57121 -11.35307,-40.53181 -27.04214,-56.72055 -11.1919,-11.54834 -24.15151,-19.09567 -39.31039,-22.8933 -6.64055,-1.6636 -12.99757,-2.49899 -21.25211,-2.79278 l -4.8125,-0.17128 0,94.19971 0,94.1997 5.6875,-0.14313 c 3.12813,-0.0787 7.09375,-0.31687 8.8125,-0.52921 z"
       id="path4245"
       inkscape:connector-curvature="0" />
  </g>
</svg>
