<?xml version="1.0" encoding="UTF-8" standalone="no"?>
<!-- Created with Inkscape (http://www.inkscape.org/) -->

<svg
   xmlns:dc="http://purl.org/dc/elements/1.1/"
   xmlns:cc="http://creativecommons.org/ns#"
   xmlns:rdf="http://www.w3.org/1999/02/22-rdf-syntax-ns#"
   xmlns:svg="http://www.w3.org/2000/svg"
   xmlns="http://www.w3.org/2000/svg"
   xmlns:sodipodi="http://sodipodi.sourceforge.net/DTD/sodipodi-0.dtd"
   xmlns:inkscape="http://www.inkscape.org/namespaces/inkscape"
   width="1600"
   height="1200"
   id="svg4157"
   version="1.1"
   inkscape:version="0.91 r13725"
   viewBox="0 0 1600 1200"
   sodipodi:docname="Wyndev.svg">
  <defs
     id="defs4159" />
  <sodipodi:namedview
     id="base"
     pagecolor="#ffffff"
     bordercolor="#666666"
     borderopacity="1.0"
     inkscape:pageopacity="0.0"
     inkscape:pageshadow="2"
     inkscape:zoom="0.3"
     inkscape:cx="108.33333"
     inkscape:cy="383.33333"
     inkscape:current-layer="layer1"
     inkscape:document-units="px"
     showgrid="false"
     inkscape:window-width="1877"
     inkscape:window-height="1056"
     inkscape:window-x="43"
     inkscape:window-y="24"
     inkscape:window-maximized="1" />
  <metadata
     id="metadata4162">
    <rdf:RDF>
      <cc:Work
         rdf:about="">
        <dc:format>image/svg+xml</dc:format>
        <dc:type
           rdf:resource="http://purl.org/dc/dcmitype/StillImage" />
        <dc:title></dc:title>
      </cc:Work>
    </rdf:RDF>
  </metadata>
  <g
     id="layer1"
     inkscape:label="Layer 1"
     inkscape:groupmode="layer">
    <path
       style="fill:#a0a0a0;stroke:none;stroke-width:1px;stroke-linecap:butt;stroke-linejoin:miter;stroke-opacity:1"
       d="m 549.04395,581.11238 c -0.5021,-1.27413 -31.71882,-75.19805 -69.37053,-164.27542 -37.65173,-89.07733 -68.12502,-162.29145 -67.71839,-162.69802 0.40657,-0.40664 64.45707,-0.53274 142.33434,-0.28039 l 141.59514,0.45904 -71.23982,163.981 c -39.18185,90.18955 -72.01561,164.2396 -72.96383,164.55565 -0.94823,0.31624 -2.13486,-0.46779 -2.63691,-1.74197 z"
       id="path4231"
       inkscape:connector-curvature="0" />
    <path
       style="color:#000000;clip-rule:nonzero;display:inline;overflow:visible;visibility:visible;opacity:1;isolation:auto;mix-blend-mode:normal;color-interpolation:sRGB;color-interpolation-filters:linearRGB;solid-color:#000000;solid-opacity:1;fill:#161b43;fill-opacity:1;fill-rule:nonzero;stroke:none;stroke-width:1px;stroke-linecap:butt;stroke-linejoin:miter;stroke-miterlimit:4;stroke-dasharray:none;stroke-dashoffset:0;stroke-opacity:1;color-rendering:auto;image-rendering:auto;shape-rendering:auto;text-rendering:auto;enable-background:accumulate"
       d="m 647.73988,806.85076 -78.35579,-181.5695 80.14849,-185.87361 80.14848,-185.87358 160.80299,-0.0563 160.80305,-0.0563 -2.4821,5.82626 c -25.189,59.12729 -320.23224,728.35267 -321.26101,728.69317 -0.79658,0.2636 -36.70844,-81.2268 -79.80411,-181.09001 z"
       id="path4233"
       inkscape:connector-curvature="0" />
    <path
       style="color:#000000;clip-rule:nonzero;display:inline;overflow:visible;visibility:visible;opacity:1;isolation:auto;mix-blend-mode:normal;color-interpolation:sRGB;color-interpolation-filters:linearRGB;solid-color:#000000;solid-opacity:1;fill:#1e1e20;fill-opacity:1;fill-rule:nonzero;stroke:none;stroke-width:1px;stroke-linecap:butt;stroke-linejoin:miter;stroke-miterlimit:4;stroke-dasharray:none;stroke-dashoffset:0;stroke-opacity:1;color-rendering:auto;image-rendering:auto;shape-rendering:auto;text-rendering:auto;enable-background:accumulate"
       d="M 369.40775,979.0152 C 368.06167,975.8108 297.11205,811.63673 211.74197,614.18394 126.37183,416.73119 56.523574,254.78347 56.523574,254.30012 c 0,-0.4833 70.096476,-0.87878 155.769886,-0.87878 l 155.76991,0 79.90688,186.44131 79.90691,186.44128 -76.57498,179.24372 c -42.11625,98.58405 -77.22119,179.25505 -78.01102,179.26875 -0.7898,0.014 -2.53731,-2.5967 -3.88341,-5.8012 z"
       id="path4235"
       inkscape:connector-curvature="0" />
    <path
       style="color:#000000;clip-rule:nonzero;display:inline;overflow:visible;visibility:visible;opacity:1;isolation:auto;mix-blend-mode:normal;color-interpolation:sRGB;color-interpolation-filters:linearRGB;solid-color:#000000;solid-opacity:1;fill:#3647a4;fill-opacity:1;fill-rule:nonzero;stroke:none;stroke-width:1px;stroke-linecap:butt;stroke-linejoin:miter;stroke-miterlimit:4;stroke-dasharray:none;stroke-dashoffset:0;stroke-opacity:1;color-rendering:auto;image-rendering:auto;shape-rendering:auto;text-rendering:auto;enable-background:accumulate"
       d="M 702.97505,930.623 C 678.72417,875.4611 577.90389,642.64238 573.39935,631.40088 L 570.77316,624.847 649.8908,441.37507 c 43.51469,-100.9096 79.67233,-184.00544 80.3503,-184.65746 0.67797,-0.652 72.95757,-1.77196 160.6214,-2.48879 135.636,-1.10912 159.241,-0.93246 158.3973,1.18547 -3.8404,9.6398 -150.50561,343.13805 -234.06343,532.23058 C 734.3089,970.6944 729.22153,982.0068 727.536,982.5687 c -0.82702,0.2757 -11.87942,-23.0999 -24.56095,-51.9457 z"
       id="path4237"
       inkscape:connector-curvature="0" />
    <text
       xml:space="preserve"
       style="font-style:normal;font-weight:normal;font-size:125.15019989px;line-height:125%;font-family:sans-serif;letter-spacing:0px;word-spacing:0px;fill:#000000;fill-opacity:1;stroke:none;stroke-width:1px;stroke-linecap:butt;stroke-linejoin:miter;stroke-opacity:1"
       x="1060.9196"
       y="986.73206"
       id="text4239"
       sodipodi:linespacing="125%"
       transform="scale(0.99917697,1.0008237)"><tspan
         sodipodi:role="line"
         id="tspan4241"
         x="1060.9196"
         y="986.73206"
         style="font-style:normal;font-variant:normal;font-weight:normal;font-stretch:normal;font-size:977.73583984px;font-family:'Poiret One';-inkscape-font-specification:'Poiret One'">D</tspan></text>
    <path
       style="color:#000000;clip-rule:nonzero;display:inline;overflow:visible;visibility:visible;opacity:1;isolation:auto;mix-blend-mode:normal;color-interpolation:sRGB;color-interpolation-filters:linearRGB;solid-color:#000000;solid-opacity:1;fill:#3647a4;fill-opacity:1;fill-rule:nonzero;stroke:none;stroke-width:1px;stroke-linecap:butt;stroke-linejoin:miter;stroke-miterlimit:4;stroke-dasharray:none;stroke-dashoffset:0;stroke-opacity:1;color-rendering:auto;image-rendering:auto;shape-rendering:auto;text-rendering:auto;enable-background:accumulate"
       d="m 1134.0658,620.14179 0,-366.75001 18.4099,0.65254 c 28.9763,1.02711 49.2094,3.39011 73.6234,8.59854 60.1777,12.83816 113.2932,40.97334 157.9822,83.68297 54.132,51.73422 89.761,111.61075 106.6726,179.26941 4.0999,16.40206 6.8011,31.23546 9.1563,50.27885 2.5023,20.23365 2.4844,72.76412 -0.032,92.74744 -4.8712,38.68783 -13.4979,71.0242 -27.7384,103.97479 -28.5781,66.12531 -82.7039,128.65648 -143.3578,165.62038 -51.0855,31.1326 -115.5815,48.675 -178.9571,48.675 l -15.7595,0 0,-366.74991 z"
       id="path4243"
       inkscape:connector-curvature="0" />
    <path
       style="color:#000000;clip-rule:nonzero;display:inline;overflow:visible;visibility:visible;opacity:1;isolation:auto;mix-blend-mode:normal;color-interpolation:sRGB;color-interpolation-filters:linearRGB;solid-color:#000000;solid-opacity:1;fill:#3647a4;fill-opacity:1;fill-rule:nonzero;stroke:none;stroke-width:1px;stroke-linecap:butt;stroke-linejoin:miter;stroke-miterlimit:4;stroke-dasharray:none;stroke-dashoffset:0;stroke-opacity:1;color-rendering:auto;image-rendering:auto;shape-rendering:auto;text-rendering:auto;enable-background:accumulate"
       d="m 1134.0658,620.14186 0,-366.75008 28.7508,0.61209 c 28.3316,0.60319 47.6176,1.96107 65.6105,4.61941 62.5507,9.24146 116.8414,32.37941 163.759,69.79178 13.8379,11.03446 41.3933,38.51047 53.2722,53.11869 56.5522,69.54619 83.8626,147.71371 83.8855,240.09629 0.021,89.18919 -26.7053,167.38027 -80.0536,234.19716 -33.9866,42.5669 -70.7761,72.6884 -115.787,94.8008 -41.3991,20.3382 -84.7491,31.5828 -136.2449,35.3408 -6.9019,0.5037 -23.9437,0.9175 -37.8707,0.9195 l -25.3218,0 0,-366.75003 z m 82.464,335.01634 c 85.5671,-10.5717 152.0988,-48.1088 207.4807,-117.06006 40.4799,-50.39816 64.0024,-107.16102 71.8748,-173.44337 2.2798,-19.19499 2.2843,-68.08346 0.01,-86.49761 -10.0038,-80.92666 -40.7052,-145.32247 -96.9567,-203.36546 -40.1274,-41.40533 -86.5927,-68.46548 -140.9432,-82.08148 -23.809,-5.96465 -46.6014,-8.95985 -76.1972,-10.01321 l -17.2547,-0.6141 0,337.74297 0,337.74292 20.392,-0.5132 c 11.2155,-0.2822 25.4338,-1.1361 31.5962,-1.8974 z"
       id="path4245"
       inkscape:connector-curvature="0" />
  </g>
</svg>
