<?xml version="1.0" encoding="UTF-8" standalone="no"?>
<!-- Created with Inkscape (http://www.inkscape.org/) -->

<svg
   xmlns:dc="http://purl.org/dc/elements/1.1/"
   xmlns:cc="http://creativecommons.org/ns#"
   xmlns:rdf="http://www.w3.org/1999/02/22-rdf-syntax-ns#"
   xmlns:svg="http://www.w3.org/2000/svg"
   xmlns="http://www.w3.org/2000/svg"
   xmlns:sodipodi="http://sodipodi.sourceforge.net/DTD/sodipodi-0.dtd"
   xmlns:inkscape="http://www.inkscape.org/namespaces/inkscape"
   width="1473.4266"
   height="734.54974"
   id="svg4157"
   version="1.1"
   inkscape:version="0.91 r13725"
   viewBox="0 0 1473.4266 734.54974"
   sodipodi:docname="wyndev.svg">
  <title
     id="title4141">Wyndev logo</title>
  <defs
     id="defs4159" />
  <sodipodi:namedview
     id="base"
     pagecolor="#ffffff"
     bordercolor="#666666"
     borderopacity="1.0"
     inkscape:pageopacity="0.0"
     inkscape:pageshadow="2"
     inkscape:zoom="0.42426407"
     inkscape:cx="957.9603"
     inkscape:cy="50.126479"
     inkscape:current-layer="layer1"
     inkscape:document-units="px"
     showgrid="false"
     inkscape:window-width="1877"
     inkscape:window-height="1056"
     inkscape:window-x="43"
     inkscape:window-y="24"
     inkscape:window-maximized="1"
     fit-margin-top="0"
     fit-margin-left="0"
     fit-margin-right="0"
     fit-margin-bottom="0" />
  <metadata
     id="metadata4162">
    <rdf:RDF>
      <cc:Work
         rdf:about="">
        <dc:format>image/svg+xml</dc:format>
        <dc:type
           rdf:resource="http://purl.org/dc/dcmitype/StillImage" />
        <dc:title>Wyndev logo</dc:title>
        <dc:date>6/17/2017</dc:date>
        <dc:creator>
          <cc:Agent>
            <dc:title>Noel Irias</dc:title>
          </cc:Agent>
        </dc:creator>
        <dc:rights>
          <cc:Agent>
            <dc:title>Noel Irias</dc:title>
          </cc:Agent>
        </dc:rights>
        <dc:publisher>
          <cc:Agent>
            <dc:title>Wyndev.co</dc:title>
          </cc:Agent>
        </dc:publisher>
        <dc:language>English</dc:language>
        <dc:subject>
          <rdf:Bag>
            <rdf:li>Wyndev Irias</rdf:li>
          </rdf:Bag>
        </dc:subject>
        <dc:contributor>
          <cc:Agent>
            <dc:title>Noel Irias</dc:title>
          </cc:Agent>
        </dc:contributor>
      </cc:Work>
    </rdf:RDF>
  </metadata>
  <g
     id="layer1"
     inkscape:label="Layer 1"
     inkscape:groupmode="layer"
     transform="translate(-56.523574,-253.39178)">
    <path
       style="fill:#a0a0a0;stroke:none;stroke-width:1px;stroke-linecap:butt;stroke-linejoin:miter;stroke-opacity:1"
       d="m 549.04395,581.11238 c -0.5021,-1.27413 -31.71882,-75.19805 -69.37053,-164.27542 -37.65173,-89.07733 -68.12502,-162.29145 -67.71839,-162.69802 0.40657,-0.40664 64.45707,-0.53274 142.33434,-0.28039 l 141.59514,0.45904 -71.23982,163.981 c -39.18185,90.18955 -72.01561,164.2396 -72.96383,164.55565 -0.94823,0.31624 -2.13486,-0.46779 -2.63691,-1.74197 z"
       id="path4231"
       inkscape:connector-curvature="0" />
    <path
       style="color:#000000;clip-rule:nonzero;display:inline;overflow:visible;visibility:visible;opacity:1;isolation:auto;mix-blend-mode:normal;color-interpolation:sRGB;color-interpolation-filters:linearRGB;solid-color:#000000;solid-opacity:1;fill:#1e1e20;fill-opacity:1;fill-rule:nonzero;stroke:none;stroke-width:1px;stroke-linecap:butt;stroke-linejoin:miter;stroke-miterlimit:4;stroke-dasharray:none;stroke-dashoffset:0;stroke-opacity:1;color-rendering:auto;image-rendering:auto;shape-rendering:auto;text-rendering:auto;enable-background:accumulate"
       d="M 369.40775,979.0152 C 368.06167,975.8108 297.11205,811.63673 211.74197,614.18394 126.37183,416.73119 56.523574,254.78347 56.523574,254.30012 c 0,-0.4833 70.096476,-0.87878 155.769886,-0.87878 l 155.76991,0 79.90688,186.44131 79.90691,186.44128 -76.57498,179.24372 c -42.11625,98.58405 -77.22119,179.25505 -78.01102,179.26875 -0.7898,0.014 -2.53731,-2.5967 -3.88341,-5.8012 z"
       id="path4235"
       inkscape:connector-curvature="0" />
    <path
       style="color:#000000;clip-rule:nonzero;display:inline;overflow:visible;visibility:visible;opacity:1;isolation:auto;mix-blend-mode:normal;color-interpolation:sRGB;color-interpolation-filters:linearRGB;solid-color:#000000;solid-opacity:1;fill:#3647a4;fill-opacity:1;fill-rule:nonzero;stroke:none;stroke-width:1px;stroke-linecap:butt;stroke-linejoin:miter;stroke-miterlimit:4;stroke-dasharray:none;stroke-dashoffset:0;stroke-opacity:1;color-rendering:auto;image-rendering:auto;shape-rendering:auto;text-rendering:auto;enable-background:accumulate"
       d="M 702.97505,930.623 C 678.72417,875.4611 577.90389,642.64238 573.39935,631.40088 L 570.77316,624.847 649.8908,441.37507 c 43.51469,-100.9096 79.67233,-184.00544 80.3503,-184.65746 0.67797,-0.652 72.95757,-1.77196 160.6214,-2.48879 135.636,-1.10912 159.241,-0.93246 158.3973,1.18547 -3.8404,9.6398 -150.50561,343.13805 -234.06343,532.23058 C 734.3089,970.6944 729.22153,982.0068 727.536,982.5687 c -0.82702,0.2757 -11.87942,-23.0999 -24.56095,-51.9457 z"
       id="path4237"
       inkscape:connector-curvature="0" />
    <path
       style="color:#000000;clip-rule:nonzero;display:inline;overflow:visible;visibility:visible;opacity:1;isolation:auto;mix-blend-mode:normal;color-interpolation:sRGB;color-interpolation-filters:linearRGB;solid-color:#000000;solid-opacity:1;fill:#3647a4;fill-opacity:1;fill-rule:nonzero;stroke:none;stroke-width:1px;stroke-linecap:butt;stroke-linejoin:miter;stroke-miterlimit:4;stroke-dasharray:none;stroke-dashoffset:0;stroke-opacity:1;color-rendering:auto;image-rendering:auto;shape-rendering:auto;text-rendering:auto;enable-background:accumulate"
       d="m 1134.0659,620.14179 0,-366.75001 19.8148,0.65254 c 31.1874,1.02711 52.9644,3.39011 79.2415,8.59854 64.7697,12.83816 121.9385,40.97334 170.0376,83.68297 58.2627,51.73422 96.6105,111.61075 114.8127,179.26941 4.4127,16.40206 7.3201,31.23546 9.855,50.27885 2.6932,20.23365 2.6739,72.76412 -0.035,92.74744 -5.2426,38.68783 -14.5277,71.0242 -29.855,103.97479 -30.7588,66.12531 -89.0149,128.65648 -154.2971,165.62038 -54.9839,31.1326 -124.4015,48.675 -192.6132,48.675 l -16.9621,0 0,-366.74991 z"
       id="path4243"
       inkscape:connector-curvature="0" />
  </g>
</svg>
